<svg width="134" height="123" viewBox="0 0 134 123" fill="none" xmlns="http://www.w3.org/2000/svg">
<path d="M55.944 2.54778C58.0836 3.61758 58.9751 4.5685 60.3421 7.243C61.8874 10.2741 62.0657 11.225 62.0062 15.8608C62.0062 21.5664 60.5798 27.0342 57.6676 32.621C55.1714 37.4945 54.161 38.802 50.7139 41.536C49.0498 42.9029 47.6234 44.3887 47.6234 44.8642C47.6234 45.8746 47.5045 45.8746 50.6545 44.8048C52.0809 44.2699 54.161 43.0218 55.1714 42.0114L57.1327 40.1096L67.6524 41.1199C90.1181 43.319 94.219 43.0218 108.602 38.6237C123.638 33.9879 128.393 34.3445 132.494 40.3473C133.445 41.8331 133.802 43.1407 133.802 45.6963C133.802 51.9368 129.225 58.1178 122.866 60.4951C115.853 63.1102 103.253 63.5262 95.7048 61.3866C93.9219 60.8517 90.8313 60.0197 88.7512 59.4848C85.1852 58.5339 84.9474 58.2961 83.8182 55.7999C82.1541 52.1151 80.1333 49.6189 77.0428 47.4793C73.2985 44.9237 73.1797 45.2802 76.5674 48.8462C78.2315 50.6292 80.1333 53.066 80.7871 54.3735C82.2135 57.1669 83.9371 62.9319 83.5805 63.5262C83.4616 63.764 82.3918 64.1206 81.322 64.2989C77.9343 64.8338 73.9523 67.0922 71.1589 70.0045C67.5929 73.8676 66.4043 78.2062 67.8901 82.426C68.425 84.0901 68.3061 84.5062 66.9392 86.408C64.859 89.0825 63.7298 92.2919 63.6704 95.4419C63.6704 97.522 63.3732 98.1758 61.8874 99.2456C59.5695 100.969 58.3214 103.763 58.3214 107.21V110.062L51.6648 109.706C44.1763 109.349 39.7782 108.101 35.499 105.189C30.9821 102.039 28.4859 98.2947 25.5142 89.974L23.8501 85.2194L24.1473 89.0825C24.3256 91.2221 24.6227 93.7183 24.8605 94.6692L25.2171 96.3928L23.2558 95.2636C19.5115 93.0645 18.3228 90.8655 16.1832 82.2477C15.6483 80.227 15.5889 80.5836 15.7672 84.9222C16.0049 92.5296 18.5606 96.4522 24.801 98.5918C25.8708 98.9484 27.0001 99.9588 27.4161 100.85C28.0699 102.336 27.951 102.574 26.1086 104.119C22.186 107.507 19.5709 107.566 13.5682 104.416C4.95036 99.7805 0.13627 89.9146 0.0768368 76.5421C0.0768368 65.1904 2.92963 54.7896 7.44655 50.0943C11.5474 45.8746 17.0153 45.2208 20.8785 48.4302C22.5426 49.8566 22.602 50.0349 21.77 51.5802C21.2945 52.5311 20.2841 53.6603 19.4521 54.1952C15.8266 56.5726 13.1521 64.7743 14.0436 70.5394L14.5191 73.3327L15.2917 68.162C16.0644 63.1696 17.5502 59.0688 19.2143 57.7612C19.8681 57.2263 19.987 58.2961 19.987 63.7045C19.987 69.945 20.1058 70.5394 21.6511 73.2139C23.7907 76.8393 25.3954 77.077 23.6124 73.4516C22.0671 70.3611 21.7105 64.4772 22.602 59.0093C23.7313 52.7688 26.168 48.0736 30.6849 43.4973C37.5197 36.603 39.1244 31.7889 39.481 17.1089C39.6593 9.26373 39.8971 7.48073 40.848 5.87603C43.8197 0.764771 49.7036 -0.54274 55.944 2.54778Z" fill="black"/>
<path d="M101.113 65.7253C107.948 66.3196 110.266 68.7564 111.039 76.0072C111.514 80.5836 110.207 84.0901 106.997 86.9429C104.917 88.9042 104.382 89.0825 101.232 89.0825C99.3897 89.0231 96.2397 88.6665 94.2785 88.191C92.3172 87.7156 88.2163 87.2995 85.1852 87.2995C78.1126 87.2995 74.7844 86.4675 72.8825 84.209C68.7222 79.276 71.3967 71.9658 78.5881 68.3403C83.8776 65.7253 88.2163 65.7847 94.7539 68.5781C99.7463 70.7771 100.519 70.9554 100.519 70.1828C100.519 69.945 99.0331 68.9941 97.1907 68.1026C94.3379 66.6762 93.9813 66.3196 94.635 65.547C95.0511 65.0715 95.7643 64.8338 96.2992 65.0121C96.8341 65.1904 98.9737 65.547 101.113 65.7253Z" fill="black"/>
<path d="M66.1071 101.326C67.2363 102.693 70.6835 104.297 74.3683 105.129C76.1513 105.546 79.7767 106.675 82.3918 107.626C85.0069 108.577 88.9295 109.825 91.1285 110.36L95.1105 111.37L94.0407 113.807C91.3662 119.809 84.1154 123.435 78.1721 121.771C76.1513 121.176 73.8334 119.512 68.841 115.114C65.1562 111.845 61.9468 108.814 61.6496 108.279C60.877 106.853 61.7091 103.346 63.1355 101.801C64.6807 100.137 65.0373 100.078 66.1071 101.326Z" fill="black"/>
<path d="M74.6061 89.6174C75.4976 89.974 79.123 90.4495 82.6295 90.6278C86.0767 90.7466 91.6634 91.341 94.9322 91.8759C99.8652 92.6485 101.529 92.7079 103.788 92.1136C107.294 91.2221 107.948 91.757 107.889 95.2636C107.829 98.7701 104.976 103.703 101.767 106.021C98.0822 108.636 93.2681 108.517 85.9578 105.605C83.0456 104.476 78.7664 103.049 76.4485 102.455C74.19 101.92 71.4561 101.088 70.3863 100.553C66.7609 98.889 65.9883 93.124 68.7222 88.9636L70.3269 86.5863L71.575 87.775C72.2882 88.4882 73.6551 89.3203 74.6061 89.6174Z" fill="black"/>
</svg>
