<svg width="136" height="234" viewBox="0 0 136 234" fill="none" xmlns="http://www.w3.org/2000/svg">
<path d="M57.56 3.80133C80.0973 14.2622 87.3577 39.5806 76.6184 70.66C71.4756 85.8207 70.8706 89.4592 73.8958 86.8819C79.1898 82.4853 110.954 95.3719 121.996 106.439C137.878 122.358 139.693 144.644 125.777 153.134C115.492 159.502 90.0803 158.44 74.1983 151.012C64.5178 146.312 55.1398 136.609 51.6609 127.209C49.5433 121.6 49.2408 119.326 50.6021 114.171C54.3836 100.375 69.8118 95.5235 79.7948 104.923C84.4838 109.32 84.635 109.471 81.0049 108.562L77.2234 107.652L81.3074 111.442C87.5089 116.9 100.668 120.842 107.021 118.871L112.013 117.355L102.483 115.384C94.013 113.716 92.6517 112.807 88.8702 107.349C77.6772 90.5205 56.5012 90.9753 47.8795 108.41C44.5518 115.081 44.4006 116.597 45.7619 123.419C47.2745 130.696 47.1232 131.151 42.7367 135.093C38.9553 138.428 38.0478 140.551 37.4428 147.373C36.989 152.679 37.594 157.531 39.1066 161.169C41.2242 166.172 41.2242 166.779 38.5015 169.508C36.8377 171.024 35.0226 175.42 34.4176 179.059C33.5101 184.062 32.4513 186.033 30.3337 186.336C25.6447 187.246 20.6532 192.704 19.5944 198.161C18.6868 203.316 22.922 214.99 27.7623 220.599C32.905 226.36 23.3758 219.993 14.9054 211.958C4.92243 202.558 0.838478 194.22 0.838478 183.759C0.838478 170.417 5.82997 164.959 7.4938 176.33C8.09883 179.969 10.2164 186.184 12.1828 190.429C14.9054 195.887 15.6617 196.797 15.0567 193.462C12.0315 179.514 11.5777 176.027 11.4265 169.053C11.4265 161.624 15.2079 145.705 17.023 145.705C17.4768 145.705 18.8381 146.918 20.0482 148.283C21.712 150.708 21.8633 149.041 21.107 136.609L20.1994 122.206L27.7623 107.804C36.989 90.3689 41.678 76.7243 41.678 68.0827C41.678 64.4441 38.9553 52.1639 35.6277 40.6418C32.3 29.1197 29.5774 16.9911 29.5774 13.6558C29.5774 0.769226 41.9805 -3.62741 57.56 3.80133Z" fill="black"/>
<path d="M56.5012 143.886C67.8455 155.56 85.6938 162.382 104.904 162.382C112.769 162.382 117.76 161.473 127.743 158.44C131.222 157.379 131.374 157.531 130.163 164.808C128.651 175.269 125.777 180.12 118.819 183.607C111.559 187.397 96.2818 187.701 83.2737 184.365C70.7194 181.181 53.1735 172.388 48.6358 166.779C44.0981 161.473 41.0729 151.466 42.5855 146.767C43.6443 142.825 47.4257 136.609 48.6358 136.609C49.0896 136.609 52.5685 139.944 56.5012 143.886Z" fill="black"/>
<path d="M46.972 172.843C48.4845 175.572 64.064 183.607 73.1395 186.639C85.6938 190.733 100.063 192.552 108.987 191.187C113.223 190.429 117.155 190.429 117.76 191.187C119.878 193.158 117.155 203.316 113.223 208.016C105.962 216.657 85.9963 219.386 68.753 214.08C49.0896 207.864 37.594 195.736 39.1066 182.697C40.0141 174.056 44.2493 168.598 46.972 172.843Z" fill="black"/>
<path d="M34.8714 194.371C38.6528 206.045 61.1901 219.69 78.8873 221.206C89.929 221.964 90.9878 224.086 83.5762 229.696C76.9209 234.699 60.4339 234.092 48.4845 228.634C33.8126 221.812 25.0396 211.654 25.0396 201.648C25.0396 193.31 32.7538 187.701 34.8714 194.371Z" fill="black"/>
</svg>
