<svg width="90" height="89" viewBox="0 0 90 89" fill="none" xmlns="http://www.w3.org/2000/svg">
<path d="M26.8367 2.51955C29.3396 4.52649 29.5729 7.53392 27.4159 8.4699C24.9449 9.51089 21.7299 15.7643 21.0337 20.7997C20.2275 26.945 21.5269 27.7715 23.1721 22.0431C23.8665 19.4767 25.2678 16.0567 26.3436 14.5433C29.6669 9.64887 31.3592 9.72687 57.3463 16.7586C77.5683 22.2304 80.8907 23.3194 84.144 25.7193C90.8927 30.6797 91.3424 36.405 86.633 56.9756C83.4535 70.8368 78.2482 83.39 74.8858 85.6145C69.1341 89.2819 54.1601 87.9845 50.168 83.3901C44.9315 77.4143 44.5872 53.0068 49.6782 52.4848C52.6024 52.2313 56.3763 56.5767 57.5737 61.6496L58.7303 66.5215L59.1249 63.304C59.4025 61.5746 59.5098 59.4191 59.4353 58.6392C59.2792 57.4572 60.3338 57.0777 63.7901 56.9682L68.3826 56.8812L62.3178 54.6702C59.0193 53.4928 55.6632 51.8248 54.896 51.1423C53.6276 49.8494 53.6755 49.6724 56.621 48.2849C58.3514 47.5184 60.935 46.4129 62.3036 45.9284C64.5014 45.1934 64.6619 44.9519 63.3315 44.592C59.2108 43.287 48.7637 47.7734 44.1437 52.8868C41.7091 55.5523 37.0972 63.8021 38.4728 62.9396C38.8107 62.7461 40.1526 61.3047 41.5424 59.6862C43.7996 56.9727 43.8883 56.9967 43.4023 59.1447C42.55 62.9981 43.1834 74.3769 44.5076 78.6293C46.0021 83.3076 45.2571 85.0056 40.3559 87.2886C37.3218 88.6521 36.363 88.6776 31.8467 87.0756L26.7096 85.3057L21.2372 75.2769C18.1533 69.7886 14.3262 63.5292 12.7173 61.3843C11.0197 59.2153 9.81341 56.9894 9.95709 56.4584C10.0768 56.0159 11.4835 54.6869 13.1323 53.5184C15.119 52.1565 16.3314 50.49 16.8414 48.2535L17.6387 44.9551L16.0742 47.5711C14.1646 50.7585 9.71404 52.7835 6.52109 51.9195C-0.574354 49.9996 -0.907009 42.7862 4.99623 22.7287C8.87821 9.43745 9.41479 8.15799 12.645 4.66305C17.4015 -0.603344 22.2743 -1.37435 26.8367 2.51955Z" fill="black"/>
</svg>
