<svg width="135" height="123" viewBox="0 0 135 123" fill="none" xmlns="http://www.w3.org/2000/svg">
<path d="M78.2784 2.54778C76.1388 3.61758 75.2473 4.5685 73.8803 7.243C72.3351 10.2741 72.1568 11.225 72.2162 15.8608C72.2162 21.5664 73.6426 27.0342 76.5548 32.621C79.051 37.4945 80.0614 38.802 83.5085 41.536C85.1726 42.9029 86.599 44.3887 86.599 44.8642C86.599 45.8746 86.7179 45.8746 83.5679 44.8048C82.1415 44.2699 80.0614 43.0218 79.051 42.0114L77.0897 40.1096L66.57 41.1199C44.1043 43.319 40.0034 43.0218 25.6206 38.6237C10.584 33.9879 5.8293 34.3445 1.72841 40.3473C0.777481 41.8331 0.420883 43.1407 0.420883 45.6963C0.420883 51.9368 4.99724 58.1178 11.3566 60.4951C18.3697 63.1102 30.9696 63.5262 38.5176 61.3866C40.3006 60.8517 43.3911 60.0197 45.4712 59.4848C49.0372 58.5339 49.275 58.2961 50.4042 55.7999C52.0683 52.1151 54.0891 49.6189 57.1796 47.4793C60.9239 44.9237 61.0427 45.2802 57.6551 48.8462C55.9909 50.6292 54.0891 53.066 53.4353 54.3735C52.0089 57.1669 50.2853 62.9319 50.6419 63.5262C50.7608 63.764 51.8306 64.1206 52.9004 64.2989C56.2881 64.8338 60.2701 67.0922 63.0635 70.0045C66.6295 73.8676 67.8181 78.2062 66.3323 82.426C65.7974 84.0901 65.9163 84.5062 67.2832 86.408C69.3634 89.0825 70.4926 92.2919 70.5521 95.4419C70.5521 97.522 70.8492 98.1758 72.3351 99.2456C74.6529 100.969 75.901 103.763 75.901 107.21V110.062L82.5576 109.706C90.0461 109.349 94.4442 108.101 98.7234 105.189C103.24 102.039 105.737 98.2947 108.708 89.974L110.372 85.2194L110.075 89.0825C109.897 91.2221 109.6 93.7183 109.362 94.6692L109.005 96.3928L110.967 95.2636C114.711 93.0645 115.9 90.8655 118.039 82.2477C118.574 80.227 118.634 80.5836 118.455 84.9222C118.217 92.5296 115.662 96.4522 109.421 98.5918C108.352 98.9484 107.222 99.9588 106.806 100.85C106.153 102.336 106.271 102.574 108.114 104.119C112.036 107.507 114.651 107.566 120.654 104.416C129.272 99.7805 134.086 89.9146 134.146 76.5421C134.146 65.1904 131.293 54.7896 126.776 50.0943C122.675 45.8746 117.207 45.2208 113.344 48.4302C111.68 49.8566 111.62 50.0349 112.452 51.5802C112.928 52.5311 113.938 53.6603 114.77 54.1952C118.396 56.5726 121.07 64.7743 120.179 70.5394L119.703 73.3327L118.931 68.162C118.158 63.1696 116.672 59.0688 115.008 57.7612C114.354 57.2263 114.235 58.2961 114.235 63.7045C114.235 69.945 114.117 70.5394 112.571 73.2139C110.432 76.8393 108.827 77.077 110.61 73.4516C112.155 70.3611 112.512 64.4772 111.62 59.0093C110.491 52.7688 108.054 48.0736 103.537 43.4973C96.7027 36.603 95.098 31.7889 94.7414 17.1089C94.5631 9.26373 94.3253 7.48073 93.3744 5.87603C90.4027 0.764771 84.5189 -0.54274 78.2784 2.54778Z" fill="black"/>
<path d="M33.1091 65.7253C26.2743 66.3196 23.9564 68.7564 23.1838 76.0072C22.7083 80.5836 24.0159 84.0901 27.2253 86.9429C29.3054 88.9042 29.8403 89.0825 32.9903 89.0825C34.8327 89.0231 37.9827 88.6665 39.944 88.191C41.9053 87.7156 46.0061 87.2995 49.0372 87.2995C56.1098 87.2995 59.438 86.4675 61.3399 84.209C65.5002 79.276 62.8257 71.9658 55.6343 68.3403C50.3448 65.7253 46.0061 65.7847 39.4685 68.5781C34.4761 70.7771 33.7035 70.9554 33.7035 70.1828C33.7035 69.945 35.1893 68.9941 37.0317 68.1026C39.8845 66.6762 40.2411 66.3196 39.5874 65.547C39.1713 65.0715 38.4581 64.8338 37.9232 65.0121C37.3883 65.1904 35.2487 65.547 33.1091 65.7253Z" fill="black"/>
<path d="M59.6163 89.6174C58.7249 89.974 55.0994 90.4495 51.5929 90.6278C48.1457 90.7466 42.559 91.341 39.2902 91.8759C34.3572 92.6485 32.6931 92.7079 30.4347 92.1136C26.9281 91.2221 26.2743 91.757 26.3338 95.2636C26.3932 98.7701 29.246 103.703 32.4554 106.021C36.1402 108.636 40.9543 108.517 48.2646 105.605C51.1768 104.476 55.456 103.049 57.7739 102.455C60.0324 101.92 62.7663 101.088 63.8361 100.553C67.4615 98.889 68.2342 93.124 65.5002 88.9636L63.8955 86.5863L62.6474 87.775C61.9342 88.4882 60.5673 89.3203 59.6163 89.6174Z" fill="black"/>
<path d="M68.1153 101.326C66.9861 102.693 63.5389 104.297 59.8541 105.129C58.0711 105.546 54.4457 106.675 51.8306 107.626C49.2155 108.577 45.2929 109.825 43.0939 110.36L39.1119 111.37L40.1817 113.807C42.8562 119.809 50.107 123.435 56.0504 121.771C58.0711 121.176 60.389 119.512 65.3814 115.114C69.0662 111.845 72.2756 108.814 72.5728 108.279C73.3454 106.853 72.5134 103.346 71.087 101.801C69.5417 100.137 69.1851 100.078 68.1153 101.326Z" fill="black"/>
</svg>
