<svg width="212" height="179" viewBox="0 0 212 179" fill="none" xmlns="http://www.w3.org/2000/svg">
<path d="M99.5905 0.331238C97.9366 0.607971 95.4558 2.13 94.0775 3.65204C91.7346 6.28101 91.4589 9.46344 91.4589 35.7532C91.3211 63.2882 89.1159 86.5338 86.6351 86.5338C85.3947 86.5338 81.1222 72.5587 76.9875 55.4013C70.6477 29.5266 65.5482 21.5014 55.2115 21.5014C49.6986 21.5014 42.1184 25.514 40.051 29.3883C35.5029 38.2437 36.8811 45.8539 47.3556 74.3575C58.6571 104.66 61.2757 121.402 56.3141 130.811C55.4872 132.472 51.766 134.409 47.08 135.792C39.9132 137.868 38.2593 137.868 26.1309 135.931C10.8326 133.44 6.28446 133.994 2.56325 138.836C-2.39837 145.063 0.0824385 156.547 7.93833 162.22C16.4833 168.585 32.7464 171.353 43.6344 168.309C47.3556 167.202 49.5608 167.617 56.7276 170.938C68.3047 176.472 83.7408 178.824 94.0775 176.749C100.555 175.504 103.587 175.504 111.168 177.302C142.729 184.774 166.572 167.202 172.637 132.056C173.739 125.692 175.117 119.327 175.531 118.081C176.082 116.698 179.941 113.515 184.351 110.886C201.579 100.232 210.951 85.842 211.778 68.4077C212.329 58.7221 212.054 57.7535 208.608 53.6025C205.714 50.1433 203.922 49.1747 199.788 49.1747C193.586 49.1747 192.07 50.6968 181.044 67.8543C173.463 79.7538 157.338 97.6031 154.306 97.6031C152.514 97.6031 154.306 92.6219 158.716 85.4269C172.636 63.5649 178.012 40.7344 173.463 23.992C170.431 13.3377 159.957 6.00426 152.101 9.04834C147.553 10.7087 146.45 13.3377 143.142 29.9417C138.043 55.1245 131.014 74.4959 123.296 84.4583C120.402 88.3326 120.54 85.5652 124.123 72.282C128.395 56.5082 128.533 27.1744 124.536 16.1051C121.78 8.49487 114.613 0.746338 110.341 0.746338C109.1 0.746338 106.757 0.469604 105.241 0.192871C103.725 -0.0838623 101.107 -0.0838623 99.5905 0.331238ZM113.924 7.11121C121.78 12.2308 126.328 33.2625 123.847 52.0804C123.02 58.4453 121.091 68.5461 119.575 74.3575C116.68 86.1187 117.094 90.5464 121.504 94.4207C123.985 96.6346 124.261 96.6346 123.434 94.5591C122.882 93.1754 124.261 90.2697 126.879 86.9489C135.562 76.2946 144.383 51.9421 148.655 27.036C149.62 22.1932 150.861 17.0736 151.55 15.69C153.479 12.0924 158.992 12.6459 163.816 16.9353C169.88 22.4699 171.81 32.9858 169.742 48.0678C168.364 57.7535 166.71 62.1812 158.992 77.1249C147.277 100.094 146.726 107.842 157.476 100.509C165.883 94.5591 176.633 82.6595 184.214 70.4832C193.448 55.8163 197.169 51.9421 200.89 52.9106C211.916 55.8163 209.573 80.7224 197.031 95.1125C194.137 98.295 187.659 103.553 182.56 106.459C177.46 109.503 172.637 113.1 171.947 114.484C171.12 115.868 169.604 122.509 168.502 129.151C165.883 143.956 161.749 153.503 154.03 161.944C143.969 172.875 132.944 176.611 116.267 174.397L108.411 173.428L113.924 168.724C119.299 164.158 123.296 156.132 122.056 152.535C121.78 151.705 120.264 153.365 118.748 156.409C113.511 166.51 105.792 171.214 91.0454 173.151C79.6062 174.673 50.8012 167.478 53.1442 163.604C53.6955 162.636 52.8685 162.497 50.6634 163.327C43.221 165.68 27.647 165.68 20.618 163.327C8.3518 159.315 1.46067 148.799 6.42228 141.604C8.3518 138.975 9.17874 138.836 18.275 139.943C23.6501 140.635 32.4708 141.189 37.708 141.189C45.9774 141.189 48.4582 140.497 54.7981 136.899C62.7918 132.472 68.5803 126.245 63.6187 127.49C61.4136 128.182 61.1379 127.352 61.5514 119.603C62.2405 107.15 59.8975 97.0497 50.5256 72.0053C38.2593 39.3507 38.6728 28.4197 52.5929 26.0675C62.9296 24.4071 66.2374 29.5266 73.4041 58.307C79.6062 83.0746 81.8113 89.1628 86.2216 93.7289C89.805 97.6031 93.8019 99.2635 91.0454 95.8044C90.0807 94.6974 90.4941 90.9615 92.5615 83.7665C94.9045 74.911 95.3179 68.5461 95.7314 41.5646C95.8692 23.992 96.1449 8.90997 96.1449 7.94141C96.4205 3.37529 107.446 2.82182 113.924 7.11121Z" fill="black"/>
<path d="M95.0264 107.177C90.7581 108.852 92.3587 109.187 108.365 109.354C122.592 109.354 128.817 110.192 135.93 112.872C147.668 117.226 146.245 114.379 133.974 109.019C123.659 104.497 103.919 103.66 95.0264 107.177Z" fill="black"/>
</svg>
