<svg width="364" height="368" viewBox="0 0 364 368" fill="none" xmlns="http://www.w3.org/2000/svg">
<path d="M92.0582 0.657722C88.9896 1.7541 81.7565 3.72757 75.8386 5.48177C51.7283 12.06 28.9332 43.197 23.2344 76.9653C21.4809 87.0519 26.0838 87.929 37.7005 80.0351C55.2352 67.975 67.9479 62.9317 93.1541 57.6691C100.387 56.1342 107.62 54.5993 109.374 54.1607C115.073 52.4065 107.182 4.16611 100.606 0.657722C98.8529 -0.219376 95.1267 -0.219376 92.0582 0.657722Z" fill="black"/>
<path d="M245.267 21.9278C243.952 25.2169 240.664 34.865 237.815 42.9782L232.993 57.8888L237.376 60.3009C239.787 61.6165 247.459 63.3707 254.034 64.2478C273.761 67.0984 281.432 69.7297 295.899 78.5007C303.351 82.8861 309.926 85.956 310.584 85.2982C312.776 83.1054 306.858 61.8358 301.159 51.9684C295.46 42.1011 287.57 35.3035 269.596 25.4362C250.747 14.911 248.116 14.6917 245.267 21.9278Z" fill="black"/>
<path d="M77.8103 90.5606C49.3164 95.3846 21.48 122.136 9.6441 156.124C2.19184 177.393 0.219184 190.988 0 219.275C0 256.113 3.50694 271.024 20.3841 304.353C28.9323 321.457 30.6858 323.869 45.1519 338.779C56.3303 350.182 74.5226 361.365 89.2079 365.75C97.5369 368.162 120.551 367.285 130.634 364.435C151.675 358.076 178.854 330.886 187.183 307.642C189.375 301.503 192.444 296.679 194.197 296.679C195.951 296.679 197.266 297.775 197.266 299.091C197.266 302.599 215.896 324.088 224.664 330.886C234.965 338.779 253.377 344.919 266.309 344.919C315.406 344.919 358.585 293.39 363.188 229.361C366.695 180.682 346.749 133.977 312.995 112.05C293.487 99.3316 279.241 96.9196 258.199 102.401C241.541 106.787 238.691 108.103 229.047 115.558C215.677 126.083 192.882 154.15 192.882 160.29C192.882 161.386 191.567 163.579 189.813 164.895C187.183 167.087 185.868 165.991 182.8 159.194C176.005 144.721 163.073 127.179 150.36 115.119C129.976 95.8232 101.921 86.3943 77.8103 90.5606ZM105.208 97.7967C142.25 107.883 171.183 142.967 183.895 193.839C188.06 209.627 188.717 217.301 188.06 243.176C187.402 263.568 185.868 277.821 183.457 286.373C173.813 319.703 157.813 340.972 134.798 352.375C123.62 357.856 120.332 358.514 105.428 357.637C84.605 356.76 71.8924 350.62 54.796 333.955C23.4527 303.476 5.04123 245.368 11.1784 196.909C15.5621 161.167 23.4527 141.871 41.645 121.04C53.0425 108.103 62.6866 102.182 78.9063 98.0159C91.8381 94.7268 93.5916 94.7268 105.208 97.7967ZM302.912 114.023C321.762 123.89 337.543 144.941 346.53 172.789C350.695 185.507 351.571 192.743 351.352 215.547C351.352 246.903 348.284 260.937 336.228 285.276C312.118 334.613 264.117 350.401 226.417 321.676C219.622 316.413 204.499 296.021 200.553 286.811C199.458 284.399 198.581 265.542 198.362 245.149C198.362 222.345 197.046 204.145 195.512 198.444C193.32 191.208 193.32 187.041 195.074 180.902C203.184 154.37 225.102 124.548 243.952 114.462C261.487 105.033 285.158 104.813 302.912 114.023Z" fill="black"/>
<path d="M89.8661 211.162C82.4139 219.056 79.7836 232.212 81.9755 248.877C83.9481 262.691 87.8935 270.804 95.3457 275.628C100.606 279.137 101.483 279.137 106.524 276.067C116.826 269.269 119.456 262.253 119.456 241.86C119.237 221.906 115.511 211.162 107.62 206.776C100.606 203.048 96.4416 204.145 89.8661 211.162ZM98.1951 226.949C104.332 233.089 97.5376 245.149 90.962 239.667C87.6743 236.817 86.5784 228.484 89.2086 225.853C91.4004 223.441 95.3457 224.099 98.1951 226.949Z" fill="black"/>
<path d="M232.993 205.022C222.472 216.863 220.938 234.405 229.048 251.508C235.842 265.761 248.336 266.419 255.35 252.824C259.295 244.93 259.734 219.713 256.007 212.696C248.117 198.882 240.884 196.47 232.993 205.022ZM240.664 224.976C241.322 229.8 240.445 230.896 236.938 230.896C233.212 230.896 232.335 229.58 232.335 224.099C232.335 218.836 233.212 217.52 236.281 218.178C238.473 218.617 240.226 221.248 240.664 224.976Z" fill="black"/>
</svg>
